<svg width="100" height="100" viewBox="0 0 100 100" fill="none" xmlns="http://www.w3.org/2000/svg">
<rect width="100" height="100" rx="50" fill="#303030"/>
<path d="M32.1534 54.9679H43.4443C41.8237 48.0752 39.7533 40.6786 37.8533 33.6988C35.9418 40.7771 33.9252 47.7504 32.1534 54.9679ZM35.0034 25.874H41.58C41.8372 25.874 41.9692 25.9242 42.1282 25.9838C43.3576 27.1187 43.5002 28.9568 43.8827 30.5028C46.7211 41.9993 49.3456 54.4062 52.4325 65.7681C53.235 65.3143 53.1397 64.1795 53.3093 63.4539C55.7834 52.8583 58.6989 41.5312 61.0922 30.7234C61.44 29.1547 61.4149 27.2905 62.7368 26.2049C63.8467 26.2996 64.9027 26.4521 65.5867 26.976C65.3835 30.5227 64.4171 33.7244 63.6135 37.2247C63.1 39.4595 62.4015 42.3726 61.86 44.828C61.6808 45.637 61.2694 46.7811 61.3128 47.3637C61.36 48.0145 62.3909 49.3492 62.9555 50.3391C65.8401 55.392 68.2343 59.5516 71.1767 64.776C72.1778 66.5522 73.5112 69.0247 75.2329 69.7343C76.2012 70.133 78.0039 69.9418 78.7419 70.2848C78.7313 70.4411 78.7226 70.5976 78.8508 70.6166V74.0322C78.6195 74.5409 78.1984 74.6053 77.6445 74.6935C74.389 75.2088 71.46 74.1253 70.0813 72.9298C66.2005 69.5678 63.9334 62.0974 60.6537 58.384C60.1518 61.2098 59.4879 63.7076 58.7904 66.649C58.3424 68.537 57.8607 73.6526 56.1592 74.2532C55.267 74.5696 53.6407 74.364 52.5424 74.364C51.1906 74.364 49.7772 74.5961 48.8156 74.2532C47.0101 73.6081 46.7153 69.0985 46.1844 66.9793C45.4223 63.9385 44.6814 61.5646 44.2112 59.0438H31.057C30.4741 61.4803 29.9009 63.9368 29.1937 66.7597C28.7409 68.5672 28.0423 73.246 26.5624 73.8125C25.0084 74.4074 21.4705 74.0731 21.0823 73.0414C20.5957 71.7474 21.9542 68.5954 22.3974 66.9803C25.7358 54.8159 29.186 43.0158 32.482 31.0552C33.0745 28.9038 33.3944 26.0663 35.0034 25.874Z" fill="white"/>
</svg>
