<svg width="53" height="52" viewBox="0 0 53 52" fill="none" xmlns="http://www.w3.org/2000/svg">
<path fill-rule="evenodd" clip-rule="evenodd" d="M20.8604 32.6754L21.168 32.6755L21.8496 32.6774C27.6387 32.7087 41.2004 33.2403 41.2004 42.2791C41.2004 50.6595 30.0623 51.7794 21.3986 51.8216L19.8713 51.8209C14.0821 51.7896 0.520508 51.2581 0.520508 42.2217C0.520508 33.6642 12.1275 32.6754 20.8604 32.6754ZM20.8604 36.5889C9.93518 36.5889 4.3938 38.4857 4.3938 42.2217C4.3938 45.9944 9.93518 47.9094 20.8604 47.9094C31.7857 47.9094 37.3271 46.0126 37.3271 42.2791C37.3271 38.5013 31.7857 36.5889 20.8604 36.5889ZM44.9448 15.6196C46.0138 15.6196 46.8814 16.4962 46.8814 17.5764L46.8812 20.8488L50.2277 20.8509C51.2967 20.8509 52.1643 21.7275 52.1643 22.8077C52.1643 23.8878 51.2967 24.7644 50.2277 24.7644L46.8812 24.7623L46.8814 28.0411C46.8814 29.1212 46.0138 29.9978 44.9448 29.9978C43.8758 29.9978 43.0082 29.1212 43.0082 28.0411L43.0079 24.7623L39.6665 24.7644C38.5975 24.7644 37.7299 23.8878 37.7299 22.8077C37.7299 21.7275 38.5975 20.8509 39.6665 20.8509L43.0079 20.8488L43.0082 17.5764C43.0082 16.4962 43.8758 15.6196 44.9448 15.6196ZM20.8604 0.177734C28.434 0.177734 34.5925 6.40281 34.5925 14.0524C34.5925 21.702 28.434 27.927 20.8604 27.927H20.7804C17.1163 27.914 13.6819 26.4608 11.1075 23.8414C8.53047 21.2193 7.11801 17.7389 7.13083 14.0446C7.13083 6.40281 13.2894 0.177734 20.8604 0.177734ZM20.8604 4.09123C15.4275 4.09123 11.0041 8.56045 11.0041 14.0524C10.9939 16.711 12.0061 19.2026 13.8524 21.0836C15.7012 22.9621 18.1646 24.0031 20.7881 24.0135L20.8604 25.9468V24.0135C26.2959 24.0135 30.7192 19.5443 30.7192 14.0524C30.7192 8.56045 26.2959 4.09123 20.8604 4.09123Z" fill="#787878"/>
</svg>
