<svg width="28" height="28" viewBox="0 0 28 28" fill="none" xmlns="http://www.w3.org/2000/svg">
<path d="M19.9275 17.8251C21.5449 15.6826 22.3027 13.0105 22.0483 10.3348C21.7897 7.61496 20.5047 5.09575 18.4547 3.28969C16.4046 1.48363 13.7435 0.526385 11.0128 0.612691C8.28201 0.698997 5.68668 1.82237 3.75477 3.75428C1.82286 5.68619 0.699486 8.28152 0.61318 11.0123C0.526874 13.7431 1.48412 16.4041 3.29018 18.4542C5.09624 20.5042 7.61545 21.7893 10.3353 22.0478C13.0113 22.3022 15.6837 21.5443 17.8264 19.9265L24.8582 26.9583C25.1367 27.237 25.5146 27.3937 25.9086 27.3938C26.3027 27.3939 26.6807 27.2375 26.9594 26.959C27.2382 26.6805 27.3948 26.3026 27.395 25.9085C27.3951 25.5145 27.2387 25.1365 26.9601 24.8578L26.9601 24.8577L19.9275 17.8251ZM16.8656 16.8638C15.4036 18.3258 13.4207 19.1471 11.3532 19.1471C9.28559 19.1471 7.30271 18.3258 5.84072 16.8638C4.37873 15.4018 3.55739 13.4189 3.55739 11.3514C3.55739 9.28378 4.37873 7.3009 5.84072 5.83891C7.30271 4.37692 9.28559 3.55558 11.3532 3.55558C13.4207 3.55558 15.4036 4.37692 16.8656 5.83891C18.3276 7.3009 19.1489 9.28378 19.1489 11.3514C19.1489 13.4189 18.3276 15.4018 16.8656 16.8638Z" fill="#303030" stroke="#303030" stroke-width="0.3"/>
</svg>
