<svg width="247" height="213" viewBox="0 0 247 213" fill="none" xmlns="http://www.w3.org/2000/svg">
<path d="M194.838 179.831H242.713L173.877 0H129.574L107.423 29.7734L95.99 0H51.6872L92.179 111.472L47.6381 112.186L36.2051 127.192L97.4192 126.239L116.712 179.831H164.826L113.854 46.4465L135.767 16.9113L194.838 179.831Z" fill="#303030"/>
<path d="M6.66942 204.841H2.85843L1.6675 209.367H0.476562L3.33481 198.887H6.43124L9.28949 209.367H8.09855L6.66942 204.841ZM4.04937 200.078L3.09662 203.65H6.43124L5.47849 200.078H4.04937Z" fill="#303030"/>
<path d="M1.66731 209.605H0V209.367L3.09643 198.648H6.43105L9.52748 209.843H7.62199L6.43105 205.318H2.85825L1.66731 209.605ZM8.09836 209.129H8.81292L5.95468 198.887H3.33462L0.476376 208.89H1.19094L2.38187 204.365H6.19286L5.95468 203.65L7.14561 204.841H6.90743L8.09836 209.129ZM2.62005 203.889L3.81099 199.839H5.4783L6.66924 203.889H2.62005ZM4.28737 200.316L3.33462 203.412H5.95468L5.00192 200.316H4.28737Z" fill="#303030"/>
<path d="M12.8621 208.652C14.053 208.652 14.5294 207.937 15.2439 206.746L16.1967 207.222C15.4821 208.652 14.5294 209.843 12.8621 209.843C11.1948 209.843 9.76562 208.413 9.76562 205.793C9.76562 203.173 11.1948 201.744 12.8621 201.744C14.5294 201.744 15.0057 202.221 15.9585 203.65L15.0057 204.364C14.2912 203.173 13.8148 202.697 12.8621 202.697C11.6711 202.697 10.9566 203.888 10.9566 205.793C10.9566 207.461 11.6711 208.652 12.8621 208.652Z" fill="#303030"/>
<path d="M12.862 209.842C10.7183 209.842 9.52734 208.175 9.52734 205.555C9.52734 202.935 10.9565 201.268 12.862 201.268C14.5293 201.268 15.2438 201.982 16.1966 203.411L16.4348 203.649L15.0056 204.602L14.7675 204.364C14.0529 203.173 13.5765 202.935 12.862 202.935C11.4328 202.935 11.1947 204.602 11.1947 205.793C11.1947 206.746 11.4328 208.651 12.862 208.651C13.8147 208.651 14.2911 208.175 15.0056 206.746V206.508L16.4348 207.222V207.46C15.7202 208.89 14.5293 209.842 12.862 209.842ZM12.862 201.744C11.1947 201.744 10.0037 203.173 10.0037 205.555C10.0037 207.937 11.1947 209.366 12.862 209.366C14.2911 209.366 15.2438 208.651 15.7202 207.222L15.2438 206.984C14.5293 208.413 13.8147 208.89 12.862 208.89C11.4328 208.89 10.4801 207.699 10.4801 205.555C10.4801 203.411 11.4328 202.22 12.862 202.22C14.0529 202.22 14.5293 202.697 15.2438 203.649L15.7202 203.411C15.0056 202.22 14.2911 201.744 12.862 201.744Z" fill="#303030"/>
<path d="M20.2468 208.652C21.4378 208.652 21.9141 207.937 22.6287 206.746L23.5814 207.222C22.8669 208.652 21.9141 209.843 20.2468 209.843C18.5795 209.843 17.1504 208.413 17.1504 205.793C17.1504 203.173 18.5795 201.744 20.2468 201.744C21.9141 201.744 22.3905 202.221 23.3433 203.65L22.3905 204.364C21.6759 203.173 21.1996 202.697 20.2468 202.697C19.0559 202.697 18.3413 203.888 18.3413 205.793C18.3413 207.461 19.0559 208.652 20.2468 208.652Z" fill="#303030"/>
<path d="M20.2458 209.842C18.1021 209.842 16.9111 208.175 16.9111 205.555C16.9111 202.935 18.3403 201.268 20.2458 201.268C21.9131 201.268 22.6276 201.982 23.5804 203.411L23.8186 203.649L22.3894 204.602L22.1513 204.364C21.4367 203.173 20.9603 202.935 20.2458 202.935C18.8166 202.935 18.5784 204.602 18.5784 205.793C18.5784 206.746 18.8166 208.651 20.2458 208.651C21.1985 208.651 21.6749 208.175 22.3894 206.746V206.508L23.8186 207.222V207.46C23.104 208.89 21.9131 209.842 20.2458 209.842ZM20.2458 201.744C18.5784 201.744 17.3875 203.173 17.3875 205.555C17.3875 207.937 18.5784 209.366 20.2458 209.366C21.6749 209.366 22.6276 208.651 23.104 207.222L22.6276 206.984C21.9131 208.413 21.1985 208.89 20.2458 208.89C18.8166 208.89 17.8639 207.699 17.8639 205.555C17.8639 203.411 18.5784 202.22 20.2458 202.22C21.4367 202.22 21.9131 202.697 22.6276 203.649L23.104 203.411C22.3894 202.22 21.6749 201.744 20.2458 201.744Z" fill="#303030"/>
<path d="M24.7715 205.555C24.7715 203.65 25.7242 201.506 28.1061 201.506C30.488 201.506 31.4407 203.65 31.4407 205.555C31.4407 207.461 30.488 209.604 28.1061 209.604C25.7242 209.604 24.7715 207.461 24.7715 205.555ZM25.9624 205.555C25.9624 206.984 26.2006 208.651 28.1061 208.651C30.0116 208.651 30.2498 206.984 30.2498 205.555C30.2498 204.126 30.0116 202.459 28.1061 202.459C26.2006 202.459 25.9624 204.126 25.9624 205.555Z" fill="#303030"/>
<path d="M28.106 209.842C25.486 209.842 24.5332 207.699 24.5332 205.555C24.5332 203.411 25.486 201.268 28.106 201.268C30.7261 201.268 31.6788 203.411 31.6788 205.555C31.6788 207.699 30.7261 209.842 28.106 209.842ZM28.106 201.744C25.2478 201.744 25.0096 204.602 25.0096 205.555C25.0096 206.508 25.2478 209.366 28.106 209.366C30.9643 209.366 31.2024 206.508 31.2024 205.555C31.2024 204.602 30.9643 201.744 28.106 201.744ZM28.106 208.89C26.4387 208.89 25.7241 207.699 25.7241 205.555C25.7241 202.935 27.1533 202.22 28.106 202.22C29.2969 202.22 30.4879 202.697 30.4879 205.555C30.4879 207.699 29.5351 208.89 28.106 208.89ZM28.106 202.697C26.9151 202.697 26.2005 203.649 26.2005 205.555C26.2005 207.46 26.9151 208.413 28.106 208.413C29.2969 208.413 30.0115 207.46 30.0115 205.555C30.0115 203.649 29.2969 202.697 28.106 202.697Z" fill="#303030"/>
<path d="M40.0156 211.986H38.8247L39.0629 209.366H32.6318V201.744H33.8228V208.175H37.6338V201.744H38.8247V208.175H40.2538L40.0156 211.986Z" fill="#303030"/>
<path d="M40.2538 212.224H38.5865L38.8247 209.604H32.6318V201.506H34.2991V207.937H37.6338V201.506H39.3011V207.937H40.7302L40.2538 212.224ZM39.0629 211.51H39.7774L40.0156 208.413H38.5865V201.982H37.872V208.413H33.5846V201.982H32.87V208.89H39.3011L39.0629 211.51Z" fill="#303030"/>
<path d="M45.7317 201.744H47.6372L47.399 209.366H46.4463V202.697H46.2081L43.1116 209.366H41.4443V201.744H42.6353V208.175L45.7317 201.744Z" fill="#303030"/>
<path d="M47.8762 209.604H46.2089V203.65L43.3506 209.604H40.9688V201.506H42.6361V207.461L45.2561 201.506H47.638L47.8762 209.604ZM46.6852 209.128H47.1616V202.22H45.7325L42.8742 208.651H42.3979V202.22H41.6833V209.128H43.1124L45.9707 202.697H46.6852V209.128Z" fill="#303030"/>
<path d="M54.7828 204.364V209.128H53.5919V208.413C52.8773 208.889 52.1627 209.366 51.4482 209.366C50.0191 209.366 48.8281 208.651 48.8281 206.746C48.8281 204.84 50.0191 204.126 51.4482 204.126C52.1627 204.126 52.8773 204.364 53.5919 204.602V204.126C53.5919 203.173 53.3537 201.982 51.9246 201.982C51.21 201.982 50.7336 202.22 50.0191 202.935L49.3045 202.22C50.0191 201.267 50.7336 201.029 51.9246 201.029C54.0682 201.506 54.7828 202.458 54.7828 204.364ZM53.83 206.031C53.3537 205.555 52.6391 205.317 51.9246 205.317C50.9718 205.317 50.2572 205.793 50.2572 206.984C50.2572 208.175 50.9718 208.651 51.9246 208.651C52.6391 208.651 53.3537 208.175 53.83 207.699V206.031Z" fill="#303030"/>
<path d="M51.6864 209.842C49.7809 209.842 48.8281 208.651 48.8281 206.984C48.8281 205.317 49.7809 204.126 51.6864 204.126C52.4009 204.126 52.8773 204.364 53.5919 204.602C53.5919 203.411 53.3537 202.697 52.1627 202.697C51.4482 202.697 51.21 202.935 50.4954 203.411L50.2572 203.649L49.0663 202.697L49.3045 202.458C50.0191 201.506 50.7336 201.029 52.1627 201.029C54.0682 201.029 55.2592 201.982 55.2592 204.364V209.604H53.5919V209.128C52.8773 209.604 52.1627 209.842 51.6864 209.842ZM51.6864 204.602C50.4954 204.602 49.3045 205.078 49.3045 206.984C49.3045 209.128 50.7336 209.366 51.6864 209.366C52.1627 209.366 53.1155 208.889 53.5919 208.413L54.0682 207.937V208.889H54.7828V204.126C54.7828 202.458 54.0682 201.744 52.4009 201.744C51.21 201.744 50.7336 202.22 50.0191 202.697L50.4954 202.935C50.9718 202.458 51.4482 202.22 52.4009 202.22C54.3064 202.22 54.3064 203.888 54.3064 204.602V205.555L53.8301 205.317C53.1155 204.84 52.4009 204.602 51.6864 204.602ZM51.6864 208.889C50.4954 208.889 49.7809 208.175 49.7809 206.984C49.7809 205.555 50.9718 205.079 51.9246 205.079C52.4009 205.079 53.3537 205.317 53.8301 205.793V207.46C53.3537 208.175 52.4009 208.889 51.6864 208.889ZM51.9246 205.793C51.6864 205.793 50.4954 205.793 50.4954 206.984C50.4954 208.175 51.21 208.413 51.9246 208.413C52.4009 208.413 53.1155 207.937 53.5919 207.46V206.269C53.1155 205.793 52.4009 205.793 51.9246 205.793Z" fill="#303030"/>
<path d="M63.835 211.986H62.644L62.8822 209.366H56.4512V201.744H57.6421V208.175H61.4531V201.744H62.644V208.175H64.0732L63.835 211.986Z" fill="#303030"/>
<path d="M64.0732 212.224H62.4058L62.644 209.604H56.4512V201.506H58.1185V207.937H61.4531V201.506H63.1204V207.937H64.5495L64.0732 212.224ZM62.8822 211.51H63.5968L63.835 208.413H62.4058V201.982H61.6913V208.413H57.4039V201.982H56.6894V208.89H63.1204L62.8822 211.51Z" fill="#303030"/>
<path d="M69.5501 201.744H71.4556L71.2174 209.366H70.2646V202.697H70.0264L67.1682 209.366H65.2627V201.744H66.4536V208.175L69.5501 201.744Z" fill="#303030"/>
<path d="M71.6945 209.604H70.0272V203.65L67.169 209.604H64.7871V201.506H66.4544V207.461L69.0745 201.506H71.4564L71.6945 209.604ZM70.5036 209.128H70.98V202.22H69.5509L66.6926 208.651H66.2162V202.22H65.5017V209.128H66.9308L69.7891 202.697H70.5036V209.128Z" fill="#303030"/>
<path d="M76.2204 206.27L74.3149 209.366H72.8857L75.0294 206.27C74.0767 206.032 73.3621 205.079 73.3621 204.126C73.3621 202.935 74.5531 201.982 75.744 201.982C76.6967 201.982 77.8877 201.982 79.0786 201.982V209.604H77.8877V206.508L76.2204 206.27ZM75.9822 205.317H77.6495V202.935H75.744C75.0294 202.935 74.3149 203.412 74.3149 204.126C74.3149 205.079 75.0294 205.317 75.9822 205.317Z" fill="#303030"/>
<path d="M74.3137 209.604H72.4082L74.5519 206.27C73.5991 205.793 72.8846 205.079 72.8846 203.888C72.8846 202.459 74.0755 201.506 75.5046 201.506C75.981 201.506 76.4574 201.506 77.1719 201.506C77.6483 201.506 78.3629 201.506 78.8392 201.506H79.0774V209.604H77.4101V206.508H76.4574L74.3137 209.604ZM73.361 209.128H74.0755L75.981 206.27V206.031H77.8865V209.128H78.6011V202.22C78.1247 202.22 77.6483 202.22 77.1719 202.22C76.6956 202.22 75.981 202.22 75.5046 202.22C74.3137 202.22 73.361 203.173 73.361 204.126C73.361 205.079 74.0755 205.793 75.0283 206.031H75.5046L73.361 209.128ZM77.8865 205.555H75.981C74.7901 205.555 74.0755 205.079 74.0755 204.126C74.0755 203.173 75.0283 202.697 75.7428 202.697H77.8865V205.555V205.555ZM75.7428 202.935C75.2665 202.935 74.5519 203.173 74.5519 203.888C74.5519 204.126 74.5519 204.84 75.981 204.84H77.4101V202.935H75.7428Z" fill="#303030"/>
<path d="M87.4144 206.984L89.0817 201.744H90.9872L91.4636 209.366H90.2727L90.0345 202.697H89.7963L88.129 208.175H86.938L85.2707 202.697H84.7944L84.5562 209.366H83.3652L83.8416 201.744H85.9853L87.4144 206.984Z" fill="#303030"/>
<path d="M90.0345 209.604L89.7963 203.65L88.3672 208.413H86.6999L85.2707 203.65L85.0325 209.604H83.3652L83.8416 201.506H86.2235L87.6526 206.031L89.0817 201.506H91.4636L91.94 209.604H90.0345ZM83.8416 209.128H84.318L84.7944 202.697H85.5089L87.1762 207.937H87.6526L85.9853 202.22H84.318L83.8416 209.128ZM89.5581 202.459H90.2727L90.749 208.89H91.2254L90.749 201.982H89.3199L87.6526 207.699H88.129L89.5581 202.459Z" fill="#303030"/>
<path d="M92.1787 201.744H93.3696L95.7515 207.937L97.657 201.744H98.848L95.2752 212.463H94.0842L95.037 209.366L92.1787 201.744Z" fill="#303030"/>
<path d="M95.275 212.701H93.6077L94.7986 209.128L91.7021 201.268H93.6077L95.7513 206.746L97.4186 201.268H99.3241L95.275 212.701ZM94.3222 212.224H94.7986L98.3714 201.982H97.6568L95.5131 208.651L92.8931 201.982H92.1785L95.0368 209.366L94.3222 212.224Z" fill="#303030"/>
<path d="M99.5615 207.461L100.514 206.984C100.991 208.413 101.467 208.651 102.658 208.651C103.849 208.651 104.325 207.937 104.325 206.984C104.325 206.031 103.373 205.793 102.658 205.793H101.229V204.84H102.658C103.373 204.84 104.087 204.364 104.087 203.65C104.087 202.935 103.611 202.459 102.896 202.459C102.182 202.459 101.467 202.697 100.991 203.65L100.276 203.173C100.991 201.744 101.705 201.506 103.134 201.506C104.802 201.506 105.516 202.459 105.516 203.411C105.516 204.364 104.802 204.84 104.325 205.317C105.278 205.555 105.993 206.508 105.993 207.461C105.993 208.651 105.04 209.842 103.373 209.842C100.991 209.604 100.038 208.89 99.5615 207.461Z" fill="#303030"/>
<path d="M102.659 209.843C100.992 209.843 100.039 209.129 99.3242 207.461V207.223L100.753 206.508V206.747C101.23 207.938 101.706 208.176 102.659 208.176C103.85 208.176 103.85 207.461 103.85 206.747C103.85 206.508 103.85 205.794 102.421 205.794H100.753V204.365H102.421C102.897 204.365 103.373 204.127 103.373 203.412C103.373 202.936 103.135 202.459 102.421 202.459C101.706 202.459 101.23 202.697 100.753 203.65L100.515 203.888L99.3242 202.936L99.5624 202.697C100.277 201.268 100.992 200.792 102.659 200.792C104.564 200.792 105.279 201.983 105.279 202.936C105.279 203.65 105.041 204.365 104.326 204.603C105.041 205.079 105.517 205.794 105.517 206.747C105.517 208.414 104.564 209.843 102.659 209.843ZM99.8006 207.461C100.277 208.652 101.23 209.367 102.659 209.367C104.326 209.367 105.041 208.414 105.041 207.223C105.041 206.27 104.326 205.556 103.612 205.318L102.659 205.079L103.612 204.841C104.088 204.603 104.803 204.127 104.803 203.174C104.803 202.459 104.088 201.507 102.659 201.507C101.468 201.507 100.992 201.745 100.277 202.936L100.753 203.174C101.23 202.221 101.944 201.983 102.897 201.983C103.85 201.983 104.326 202.459 104.326 203.412C104.326 204.365 103.612 204.841 102.659 204.841H101.706V205.318H102.659C103.85 205.318 104.564 205.794 104.564 206.747C104.564 207.699 104.088 208.652 102.659 208.652C101.468 208.652 100.753 208.176 100.277 206.985L99.8006 207.461Z" fill="#303030"/>
<path d="M112.662 204.84V205.793H107.66C107.66 206.984 108.136 208.413 109.565 208.413C110.756 208.413 111.471 207.699 111.947 206.984L112.9 207.461C112.424 208.651 111.471 209.604 109.803 209.604C107.422 209.604 106.707 207.461 106.707 205.555C106.707 203.65 107.66 201.506 109.803 201.506C111.709 201.506 112.662 203.173 112.662 204.84ZM111.471 204.84C111.471 203.65 110.994 202.459 109.565 202.459C108.136 202.459 107.66 203.65 107.66 204.84H111.471Z" fill="#303030"/>
<path d="M109.566 209.842C106.946 209.842 106.231 207.46 106.231 205.555C106.231 203.649 107.184 201.268 109.566 201.268C111.71 201.268 112.663 202.935 112.901 204.364V204.84V206.031H107.899C107.899 206.984 108.375 208.175 109.566 208.175C110.757 208.175 111.233 207.699 111.71 206.746L111.948 206.508L113.377 207.222V207.46C112.424 208.651 111.472 209.842 109.566 209.842ZM109.566 201.744C107.422 201.744 106.708 203.888 106.708 205.555C106.708 207.222 107.422 209.366 109.566 209.366C110.757 209.366 111.71 208.89 112.424 207.699L111.948 207.46C111.472 208.175 110.995 208.89 109.566 208.89C108.137 208.89 107.422 207.699 107.184 206.031V205.793H112.186V205.555V205.079C112.424 204.126 112.186 201.744 109.566 201.744ZM111.71 205.079H107.184V204.84C107.422 203.173 108.137 202.22 109.328 202.22C111.472 202.22 111.472 204.126 111.472 204.84L111.71 205.079ZM107.899 204.602H111.233C110.995 203.411 110.519 202.697 109.566 202.697C108.375 202.697 107.899 203.888 107.899 204.602Z" fill="#303030"/>
<path d="M120.045 204.84V205.793H115.043C115.043 206.984 115.52 208.413 116.949 208.413C118.14 208.413 118.854 207.699 119.093 206.984L120.045 207.461C119.569 208.651 118.616 209.604 116.949 209.604C114.567 209.604 113.853 207.461 113.853 205.555C113.853 203.65 114.805 201.506 116.949 201.506C119.093 201.506 120.045 203.173 120.045 204.84ZM118.854 204.84C118.854 203.65 118.378 202.459 116.949 202.459C115.52 202.459 115.043 203.65 115.043 204.84H118.854Z" fill="#303030"/>
<path d="M116.95 209.842C114.33 209.842 113.615 207.46 113.615 205.555C113.615 203.649 114.568 201.268 116.95 201.268C119.094 201.268 120.046 202.935 120.284 204.364V204.84V206.031H115.283C115.283 206.984 115.759 208.175 116.95 208.175C118.141 208.175 118.617 207.699 119.094 206.746L119.332 206.508L120.761 207.222V207.46C119.808 208.651 118.855 209.842 116.95 209.842ZM116.95 201.744C114.806 201.744 114.092 203.888 114.092 205.555C114.092 207.222 114.806 209.366 116.95 209.366C118.141 209.366 119.094 208.89 119.808 207.699L119.332 207.46C118.855 208.175 118.379 208.89 116.95 208.89C115.521 208.89 114.806 207.699 114.568 206.031V205.793H119.57V205.555V205.079C119.808 204.126 119.57 201.744 116.95 201.744ZM119.094 205.079H114.568V204.84C114.806 203.173 115.521 202.22 116.712 202.22C118.855 202.22 118.855 204.126 118.855 204.84L119.094 205.079ZM115.283 204.602H118.617C118.379 203.411 117.903 202.697 116.95 202.697C115.759 202.697 115.521 203.888 115.283 204.602Z" fill="#303030"/>
<path d="M124.572 201.744C125.763 201.744 126.716 202.459 126.716 203.411C126.716 204.364 126.239 204.84 125.525 205.079C126.478 205.317 127.192 206.031 127.192 206.984C127.192 208.175 126.001 209.128 124.81 209.128C123.857 209.128 122.667 209.128 121.476 209.128V201.506H124.572V201.744ZM124.334 204.84C125.048 204.84 125.525 204.364 125.525 203.65C125.525 202.935 124.81 202.697 124.334 202.697H122.667V204.84H124.334ZM126.001 206.984C126.001 206.031 125.048 205.793 124.334 205.793H122.667V208.175H124.572C125.287 208.175 126.001 207.937 126.001 206.984Z" fill="#303030"/>
<path d="M121.475 209.604H121.237V201.506H124.572C126.001 201.506 126.954 202.459 126.954 203.411C126.954 204.126 126.716 204.602 126.239 205.079C126.954 205.555 127.43 206.27 127.43 206.984C127.43 208.413 126.239 209.366 124.81 209.366C124.334 209.366 123.619 209.366 123.143 209.366C122.666 209.604 121.952 209.604 121.475 209.604ZM121.714 201.982V208.89C122.19 208.89 122.666 208.89 123.143 208.89C123.619 208.89 124.334 208.89 124.81 208.89C126.001 208.89 126.954 207.937 126.954 206.984C126.954 206.031 126.477 205.317 125.525 205.317L124.572 205.079L125.525 204.84C126.239 204.602 126.477 204.126 126.477 203.411C126.477 202.697 125.763 201.982 124.572 201.982H121.714V201.982ZM124.572 208.413H122.428V205.555H124.334C125.525 205.555 126.239 206.031 126.239 206.984C126.239 207.937 125.286 208.413 124.572 208.413ZM122.905 207.937H124.572C125.048 207.937 125.763 207.699 125.763 206.984C125.763 206.746 125.763 206.031 124.334 206.031H122.905V207.937V207.937ZM124.334 205.079H122.428V202.459H124.334C125.286 202.459 125.763 202.935 125.763 203.65C125.763 204.602 125.286 205.079 124.334 205.079ZM122.905 204.602H124.334C124.81 204.602 125.286 204.364 125.286 203.65C125.286 203.173 125.048 202.935 124.334 202.935H122.905V204.602Z" fill="#303030"/>
<path d="M131.241 208.176H132.432L134.814 198.887H139.34V208.176H140.769L140.292 211.987H139.101L139.34 209.367H132.432L132.67 211.987H131.479L131.241 208.176ZM133.623 208.176H138.149V200.078H135.767L133.623 208.176Z" fill="#303030"/>
<path d="M140.53 212.225H138.863L139.101 209.605H132.908L133.147 212.225H131.479L131.003 207.699H132.194L134.576 198.41H139.578V207.699H141.007L140.53 212.225ZM139.339 211.749H140.054L140.53 208.414H139.339V198.887H135.29L132.908 208.176H131.717L132.194 211.51H132.908L132.67 208.89H140.054L139.339 211.749ZM138.387 208.414H133.147L135.528 199.839H138.387V208.414ZM133.861 207.938H137.91V200.316H136.005L133.861 207.938Z" fill="#303030"/>
<path d="M147.438 204.364V209.128H146.485V208.413C145.771 208.889 145.056 209.366 144.342 209.366C142.913 209.366 141.722 208.651 141.722 206.746C141.722 204.84 142.913 204.126 144.342 204.126C145.056 204.126 145.771 204.364 146.485 204.602V204.126C146.485 203.173 146.247 201.982 144.818 201.982C144.104 201.982 143.627 202.22 142.913 202.935L142.198 202.22C142.913 201.267 143.627 201.029 144.818 201.029C146.724 201.506 147.438 202.458 147.438 204.364ZM146.485 206.031C146.009 205.555 145.294 205.317 144.58 205.317C143.627 205.317 142.913 205.793 142.913 206.984C142.913 208.175 143.627 208.651 144.58 208.651C145.294 208.651 146.009 208.175 146.485 207.699V206.031Z" fill="#303030"/>
<path d="M144.341 209.842C142.435 209.842 141.482 208.651 141.482 206.984C141.482 205.317 142.435 204.126 144.341 204.126C145.055 204.126 145.532 204.364 146.246 204.602C146.246 203.411 146.008 202.697 144.817 202.697C144.102 202.697 143.864 202.935 143.15 203.411L142.912 203.649L141.721 202.697L141.959 202.458C142.673 201.506 143.388 201.029 144.817 201.029C146.961 201.029 147.913 201.982 147.913 204.364V209.604H146.246V209.128C145.532 209.604 144.817 209.842 144.341 209.842ZM144.341 204.602C143.15 204.602 141.959 205.078 141.959 206.984C141.959 209.128 143.388 209.366 144.341 209.366C144.817 209.366 145.77 208.889 146.246 208.413L146.723 207.937V208.889H147.437V204.126C147.437 202.458 146.723 201.744 145.055 201.744C143.864 201.744 143.388 202.22 142.673 202.697L143.15 202.935C143.626 202.458 144.102 202.22 145.055 202.22C146.961 202.22 146.961 203.888 146.961 204.602V205.555L146.484 205.317C145.77 204.84 145.055 204.602 144.341 204.602ZM144.341 208.889C143.15 208.889 142.435 208.175 142.435 206.984C142.435 205.555 143.626 205.079 144.579 205.079C145.055 205.079 146.008 205.317 146.484 205.793V207.46C146.008 208.175 145.055 208.889 144.341 208.889ZM144.579 205.793C144.341 205.793 143.15 205.793 143.15 206.984C143.15 208.175 143.864 208.413 144.579 208.413C145.055 208.413 145.77 207.937 146.246 207.46V206.269C145.77 205.793 145.055 205.793 144.579 205.793Z" fill="#303030"/>
<path d="M148.629 209.366L151.249 201.744H155.298V209.366H154.107V202.697H152.202L149.82 209.366H148.629Z" fill="#303030"/>
<path d="M155.535 209.604H153.868V203.173H152.201L150.057 209.604H148.39L151.248 201.506H155.773V209.604H155.535ZM154.344 209.128H155.059V202.22H151.486L149.104 209.128H149.819L151.962 202.697H154.583V209.128H154.344Z" fill="#303030"/>
<path d="M158.394 201.744V204.84H160.776C161.967 204.84 162.92 205.793 162.92 206.984C162.92 208.175 161.967 209.128 160.776 209.128H157.441V201.506L158.394 201.744ZM161.729 206.984C161.729 206.031 161.014 205.793 160.3 205.793H158.394V208.175H160.538C161.014 208.175 161.729 207.937 161.729 206.984Z" fill="#303030"/>
<path d="M160.538 209.604H156.727V201.506H158.156V201.744H158.394V204.602H160.538C161.967 204.602 162.919 205.793 162.919 206.984C163.158 208.413 161.967 209.604 160.538 209.604ZM157.441 209.128H160.538C161.49 209.128 162.443 208.175 162.443 207.222C162.443 206.031 161.49 205.317 160.538 205.317H157.917V202.22H157.203V209.128H157.441ZM160.299 208.413H157.917V205.555H160.061C161.49 205.555 161.728 206.27 161.728 206.984C161.967 207.937 161.252 208.413 160.299 208.413ZM158.632 207.937H160.538C160.776 207.937 161.49 207.937 161.49 206.984C161.49 206.27 161.014 206.031 160.299 206.031H158.632V207.937Z" fill="#303030"/>
<path d="M164.11 209.366V201.744H165.301V204.841H169.112V201.744H170.303V209.366H169.112V205.793H165.301V209.366H164.11Z" fill="#303030"/>
<path d="M170.541 209.604H168.874V206.031H165.539V209.604H163.872V201.506H165.539V204.602H168.874V201.506H170.541V209.604V209.604ZM169.35 209.128H170.065V202.22H169.35V205.317H165.063V202.22H164.348V209.128H165.063V205.555H169.35V209.128Z" fill="#303030"/>
<path d="M177.926 204.84V205.793H172.924C172.924 206.984 173.401 208.413 174.83 208.413C176.021 208.413 176.735 207.699 176.974 206.984L177.926 207.461C177.45 208.651 176.497 209.604 174.83 209.604C172.448 209.604 171.733 207.461 171.733 205.555C171.733 203.65 172.686 201.506 174.83 201.506C176.974 201.506 177.926 203.173 177.926 204.84ZM176.974 204.84C176.974 203.65 176.497 202.459 175.068 202.459C173.639 202.459 173.163 203.65 173.163 204.84H176.974Z" fill="#303030"/>
<path d="M174.83 209.842C172.21 209.842 171.495 207.46 171.495 205.555C171.495 203.649 172.448 201.268 174.83 201.268C176.973 201.268 177.926 202.935 178.164 204.364V204.84V206.031H173.162C173.162 206.984 173.639 208.175 174.83 208.175C176.021 208.175 176.497 207.699 176.973 206.746L177.212 206.508L178.641 207.222V207.46C177.688 208.651 176.973 209.842 174.83 209.842ZM174.83 201.744C172.686 201.744 171.971 203.888 171.971 205.555C171.971 207.222 172.686 209.366 174.83 209.366C176.021 209.366 176.973 208.89 177.688 207.699L177.212 207.46C176.735 208.175 176.259 208.89 174.83 208.89C173.401 208.89 172.686 207.699 172.448 206.031V205.793H177.45V205.555V205.079C177.688 204.126 177.45 201.744 174.83 201.744ZM177.212 205.079H172.686V204.84C172.924 203.173 173.639 202.22 174.83 202.22C176.973 202.22 176.973 204.126 176.973 204.84L177.212 205.079ZM173.162 204.602H176.497C176.259 203.411 175.782 202.697 174.83 202.697C173.639 202.697 173.401 203.888 173.162 204.602Z" fill="#303030"/>
<path d="M179.354 209.366V201.744H184.356V202.697H180.545V209.366H179.354Z" fill="#303030"/>
<path d="M180.785 209.604H179.117V201.506H184.595V203.173H180.785V209.604ZM179.594 209.128H180.308V202.697H184.119V202.22H179.594V209.128V209.128Z" fill="#303030"/>
<path d="M185.072 205.555C185.072 203.65 186.025 201.506 188.407 201.506C190.789 201.506 191.742 203.65 191.742 205.555C191.742 207.461 190.789 209.604 188.407 209.604C186.025 209.604 185.072 207.461 185.072 205.555ZM186.263 205.555C186.263 206.984 186.501 208.651 188.407 208.651C190.312 208.651 190.551 206.984 190.551 205.555C190.551 204.126 190.312 202.459 188.407 202.459C186.501 202.459 186.263 204.126 186.263 205.555Z" fill="#303030"/>
<path d="M188.406 209.842C185.786 209.842 184.833 207.699 184.833 205.555C184.833 203.411 185.786 201.268 188.406 201.268C191.026 201.268 191.979 203.411 191.979 205.555C191.979 207.699 191.026 209.842 188.406 209.842ZM188.406 201.744C185.548 201.744 185.309 204.602 185.309 205.555C185.309 206.508 185.548 209.366 188.406 209.366C191.264 209.366 191.502 206.508 191.502 205.555C191.502 204.602 191.264 201.744 188.406 201.744ZM188.406 208.89C186.739 208.89 186.024 207.699 186.024 205.555C186.024 202.935 187.453 202.22 188.406 202.22C189.597 202.22 190.788 202.697 190.788 205.555C190.788 207.699 190.073 208.89 188.406 208.89ZM188.406 202.697C187.215 202.697 186.5 203.649 186.5 205.555C186.5 207.46 187.215 208.413 188.406 208.413C189.597 208.413 190.311 207.46 190.311 205.555C190.311 203.649 189.597 202.697 188.406 202.697Z" fill="#303030"/>
<path d="M201.506 203.412C202.697 203.65 203.411 204.603 203.411 206.271C203.411 207.938 202.22 209.367 200.553 209.367H196.504V198.887H199.6C201.029 198.887 202.697 199.601 202.697 201.269C202.935 202.221 202.459 202.936 201.506 203.412ZM197.933 202.936H199.839C200.791 202.936 201.506 202.221 201.506 201.269C201.506 200.316 200.553 199.839 199.6 199.839H197.933V202.936ZM201.982 206.271C201.982 204.841 201.029 204.127 199.6 204.127H197.695V208.176H200.077C201.268 208.176 201.982 207.223 201.982 206.271Z" fill="#303030"/>
<path d="M196.504 209.605V198.41H199.839C200.791 198.41 201.744 198.648 202.459 199.363C202.935 199.839 203.173 200.316 203.173 201.03C203.173 201.983 202.935 202.936 201.982 203.412C202.935 203.888 203.65 204.841 203.65 206.27C203.65 207.938 202.22 209.605 200.553 209.605H196.504ZM196.98 198.887V208.89H200.553C201.982 208.89 202.935 207.461 202.935 206.032C202.935 204.365 201.982 203.65 201.268 203.412L200.553 203.174L201.029 202.936C201.982 202.459 202.22 201.745 202.22 200.792C202.22 200.316 201.982 199.839 201.744 199.601C201.268 199.125 200.315 198.887 199.6 198.887H196.98ZM197.695 208.414V203.888H199.839C201.268 203.888 202.22 204.603 202.459 206.032V206.27C202.459 207.461 201.506 208.414 200.315 208.414H197.695ZM198.171 204.365V207.938H200.315C201.268 207.938 201.744 207.223 201.744 206.509V206.27C201.744 204.603 200.553 204.365 199.839 204.365H198.171ZM197.933 203.174H197.695V199.601H199.6C200.553 199.601 201.744 200.077 201.744 201.268C201.744 202.459 201.029 203.174 199.839 203.174H197.933ZM198.171 200.077V202.698H199.839C200.791 202.698 201.268 202.221 201.268 201.268C201.268 200.316 200.077 200.077 199.6 200.077H198.171Z" fill="#303030"/>
<path d="M204.603 205.555C204.603 203.65 205.555 201.506 207.937 201.506C210.319 201.506 211.272 203.65 211.272 205.555C211.272 207.461 210.319 209.604 207.937 209.604C205.555 209.604 204.603 207.461 204.603 205.555ZM205.793 205.555C205.793 206.984 206.032 208.651 207.937 208.651C209.843 208.651 210.081 206.984 210.081 205.555C210.081 204.126 209.843 202.459 207.937 202.459C206.032 202.459 205.793 204.126 205.793 205.555Z" fill="#303030"/>
<path d="M207.937 209.842C205.317 209.842 204.364 207.699 204.364 205.555C204.364 203.411 205.317 201.268 207.937 201.268C210.557 201.268 211.51 203.411 211.51 205.555C211.51 207.699 210.557 209.842 207.937 209.842ZM207.937 201.744C205.079 201.744 204.841 204.602 204.841 205.555C204.841 206.508 205.079 209.366 207.937 209.366C210.795 209.366 211.033 206.508 211.033 205.555C211.033 204.602 210.795 201.744 207.937 201.744ZM207.937 208.89C206.27 208.89 205.555 207.699 205.555 205.555C205.555 202.935 206.984 202.22 207.937 202.22C209.128 202.22 210.319 202.697 210.319 205.555C210.319 207.699 209.366 208.89 207.937 208.89ZM207.937 202.697C206.746 202.697 206.032 203.649 206.032 205.555C206.032 207.46 206.746 208.413 207.937 208.413C209.128 208.413 209.843 207.46 209.843 205.555C209.843 203.649 209.128 202.697 207.937 202.697Z" fill="#303030"/>
<path d="M215.321 208.652C216.512 208.652 216.988 207.937 217.703 206.746L218.656 207.222C217.941 208.652 216.988 209.843 215.321 209.843C213.654 209.843 212.225 208.413 212.225 205.793C212.225 203.173 213.654 201.744 215.321 201.744C216.988 201.744 217.465 202.221 218.417 203.65L217.465 204.364C216.75 203.173 216.274 202.697 215.321 202.697C214.13 202.697 213.416 203.888 213.416 205.793C213.416 207.461 214.13 208.652 215.321 208.652Z" fill="#303030"/>
<path d="M215.321 209.842C213.177 209.842 211.986 208.175 211.986 205.555C211.986 202.935 213.415 201.268 215.321 201.268C216.988 201.268 217.703 201.982 218.656 203.411L218.894 203.649L217.465 204.602L217.226 204.364C216.512 203.173 216.036 202.935 215.321 202.935C213.892 202.935 213.654 204.602 213.654 205.793C213.654 206.746 213.892 208.651 215.321 208.651C216.274 208.651 216.75 208.175 217.465 206.746V206.508L218.894 207.222V207.46C218.179 208.89 216.988 209.842 215.321 209.842ZM215.321 201.744C213.654 201.744 212.463 203.173 212.463 205.555C212.463 207.937 213.654 209.366 215.321 209.366C216.75 209.366 217.703 208.651 218.179 207.222L217.703 206.984C216.988 208.413 216.274 208.89 215.321 208.89C213.892 208.89 212.939 207.699 212.939 205.555C212.939 203.411 213.892 202.22 215.321 202.22C216.512 202.22 216.988 202.697 217.703 203.649L218.179 203.411C217.465 202.22 216.75 201.744 215.321 201.744Z" fill="#303030"/>
<path d="M219.37 202.697V201.744H225.087V202.697H222.943V209.366H221.752V202.697H219.37Z" fill="#303030"/>
<path d="M223.181 209.604H221.514V203.173H219.132V201.506H225.325V203.173H222.943V209.604H223.181ZM221.99 209.128H222.705V202.697H225.087V202.22H219.846V202.697H222.228V209.128H221.99Z" fill="#303030"/>
<path d="M225.801 205.555C225.801 203.65 226.754 201.506 229.135 201.506C231.517 201.506 232.47 203.65 232.47 205.555C232.47 207.461 231.517 209.604 229.135 209.604C226.754 209.604 225.801 207.461 225.801 205.555ZM226.992 205.555C226.992 206.984 227.23 208.651 229.135 208.651C231.041 208.651 231.279 206.984 231.279 205.555C231.279 204.126 231.041 202.459 229.135 202.459C227.468 202.459 226.992 204.126 226.992 205.555Z" fill="#303030"/>
<path d="M229.136 209.842C226.516 209.842 225.563 207.699 225.563 205.555C225.563 203.411 226.516 201.268 229.136 201.268C231.756 201.268 232.709 203.411 232.709 205.555C232.709 207.699 231.756 209.842 229.136 209.842ZM229.136 201.744C226.278 201.744 226.04 204.602 226.04 205.555C226.04 206.508 226.278 209.366 229.136 209.366C231.995 209.366 232.233 206.508 232.233 205.555C232.233 204.602 231.995 201.744 229.136 201.744ZM229.136 208.89C227.469 208.89 226.754 207.699 226.754 205.555C226.754 202.935 228.184 202.22 229.136 202.22C230.327 202.22 231.518 202.697 231.518 205.555C231.756 207.699 230.804 208.89 229.136 208.89ZM229.136 202.697C227.945 202.697 227.231 203.649 227.231 205.555C227.231 207.46 227.945 208.413 229.136 208.413C230.327 208.413 231.042 207.46 231.042 205.555C231.042 203.649 230.565 202.697 229.136 202.697Z" fill="#303030"/>
<path d="M236.282 205.793H235.091V209.366H233.9V201.744H235.091V204.841H236.282L238.426 201.744H239.617L237.235 205.079L240.093 209.366H238.902L236.282 205.793Z" fill="#303030"/>
<path d="M240.569 209.604H238.664L236.044 206.031H235.091V209.604H233.424V201.506H235.091V204.602H236.044L238.188 201.506H240.093L237.473 205.317L240.569 209.604ZM239.14 209.128H239.617L236.758 205.317L239.14 202.22H238.664L236.52 205.317H234.615V202.22H233.9V209.128H234.615V205.555H236.52L239.14 209.128Z" fill="#303030"/>
<path d="M246.762 204.364V209.128H245.571V208.413C244.857 208.889 244.142 209.366 243.428 209.366C241.999 209.366 240.808 208.651 240.808 206.746C240.808 204.84 241.999 204.126 243.428 204.126C244.142 204.126 244.857 204.364 245.571 204.602V204.126C245.571 203.173 245.333 201.982 243.904 201.982C243.189 201.982 242.713 202.22 241.999 202.935L241.284 202.22C241.999 201.267 242.713 201.029 243.904 201.029C246.048 201.506 246.762 202.458 246.762 204.364ZM245.571 206.031C245.095 205.555 244.38 205.317 243.666 205.317C242.713 205.317 241.999 205.793 241.999 206.984C241.999 208.175 242.713 208.651 243.666 208.651C244.38 208.651 245.095 208.175 245.571 207.699V206.031Z" fill="#303030"/>
<path d="M243.428 209.842C241.522 209.842 240.569 208.651 240.569 206.984C240.569 205.317 241.522 204.126 243.428 204.126C244.142 204.126 244.619 204.364 245.333 204.602C245.333 203.411 245.095 202.697 243.904 202.697C243.189 202.697 242.951 202.935 242.237 203.411L241.998 203.649L240.808 202.697L241.046 202.458C241.76 201.506 242.475 201.029 243.904 201.029C246.048 201.029 247 201.982 247 204.364V209.604H245.333V209.128C244.857 209.604 244.142 209.842 243.428 209.842ZM243.428 204.602C242.237 204.602 241.046 205.078 241.046 206.984C241.046 209.128 242.475 209.366 243.428 209.366C243.904 209.366 244.857 208.889 245.333 208.413L245.809 207.937V208.889H246.524V204.126C246.524 202.458 245.809 201.744 244.142 201.744C242.951 201.744 242.475 202.22 241.76 202.697L242.237 202.935C242.713 202.458 243.189 202.22 244.142 202.22C246.048 202.22 246.048 203.888 246.048 204.602V205.555L245.571 205.317C244.857 204.84 244.142 204.602 243.428 204.602ZM243.428 208.889C242.237 208.889 241.522 208.175 241.522 206.984C241.522 205.555 242.713 205.079 243.666 205.079C244.142 205.079 245.095 205.317 245.571 205.793V207.46C245.095 208.175 244.142 208.889 243.428 208.889ZM243.666 205.793C243.428 205.793 242.237 205.793 242.237 206.984C242.237 208.175 242.951 208.413 243.666 208.413C244.142 208.413 244.857 207.937 245.333 207.46V206.269C244.857 205.793 244.142 205.793 243.666 205.793Z" fill="#303030"/>
</svg>
