<svg width="62" height="82" viewBox="0 0 62 82" fill="none" xmlns="http://www.w3.org/2000/svg">
<path d="M27.8141 80.3456C4.35453 46.6104 0 43.1482 0 30.75C0 13.7672 13.8791 0 31 0C48.1209 0 62 13.7672 62 30.75C62 43.1482 57.6455 46.6104 34.1859 80.3456C32.6464 82.5516 29.3534 82.5514 27.8141 80.3456Z" fill="#303030"/>
<circle cx="31" cy="31" r="26.25" fill="white" stroke="#303030" stroke-width="1.5"/>
<path d="M40.3737 46H48.3333L36.8889 16H29.5233L25.8404 20.9669L23.9396 16H16.574L23.306 34.596L15.9008 34.7152L14 37.2185L24.1772 37.0596L27.3849 46H35.3841L26.9097 23.7483L30.5529 18.8212L40.3737 46Z" fill="#303030"/>
</svg>
