<svg width="190" height="110" xmlns="http://www.w3.org/2000/svg">
  <g transform="translate(0 1.706)" fill="none" fill-rule="evenodd">
    <path d="M190 47.626h-.9c-16.78 0-31.313 9.642-38.391 23.701h-.107c-9.499 21.574-31.022 36.63-56.052 36.63s-46.553-15.056-56.052-36.63h-.108C31.313 57.267 16.78 47.626 0 47.626h.9c16.78 0 31.313-9.642 38.39-23.702h.108c-.107 0 30.122 8.87 55.152 8.87s56.952-8.87 56.952-8.87h.108c7.077 14.06 21.611 23.702 38.39 23.702Z" fill="#FFF" fill-rule="nonzero"/>
    <path d="M82.628 33.922a2.142 2.142 0 0 1 3.03 0l17.552 17.552-.003-13.008a2.145 2.145 0 1 1 4.29 0v18.18a2.142 2.142 0 0 1-2.145 2.145h-18.18a2.145 2.145 0 0 1 0-4.29l13.008.003L82.628 36.95a2.142 2.142 0 0 1 0-3.03Z" fill="#303030"/>
    <circle stroke="#D7D7D7" stroke-width="2" cx="95" cy="46.275" r="46.275"/>
  </g>
</svg>
