<svg width="24" height="70" viewBox="0 0 24 70" fill="none" xmlns="http://www.w3.org/2000/svg">
<g clip-path="url(#clip0_683_2284)">
<mask id="path-1-inside-1_683_2284" fill="white">
<path fill-rule="evenodd" clip-rule="evenodd" d="M6.35391 70C2.19886 70 0.00454367 63.166 2.61389 59.9325C8.11508 53.1154 11.4088 44.4427 11.4088 35.0006C11.4088 25.5585 8.11498 16.8856 2.61363 10.0684C0.00415693 6.83481 2.19865 0 6.35384 0H712C731.33 0 747 15.67 747 35C747 54.33 731.33 70 712 70H6.35391Z"/>
</mask>
<path d="M9.40883 35.0006C9.40883 43.9692 6.28207 52.2021 1.05746 58.6765L4.17033 61.1885C9.9481 54.0286 13.4088 44.9161 13.4088 35.0006H9.40883ZM1.05721 11.3244C6.28197 17.7989 9.40883 26.0319 9.40883 35.0006H13.4088C13.4088 25.085 9.94799 15.9723 4.17005 8.81242L1.05721 11.3244ZM6.35384 2H712V-2H6.35384V2ZM712 2C730.225 2 745 16.7746 745 35H749C749 14.5655 732.435 -2 712 -2V2ZM745 35C745 53.2254 730.225 68 712 68V72C732.435 72 749 55.4345 749 35H745ZM712 68H6.35391V72H712V68ZM4.17005 8.81242C3.44742 7.91695 3.23163 6.19997 3.83405 4.48415C4.44605 2.74107 5.50648 2 6.35384 2V-2C3.04601 -2 0.931596 0.676333 0.0599149 3.15906C-0.821338 5.66905 -0.829636 8.98629 1.05721 11.3244L4.17005 8.81242ZM1.05746 58.6765C-0.829285 61.0146 -0.821047 64.3316 0.0601895 66.8414C0.931863 69.324 3.04624 72 6.35391 72V68C5.50653 68 4.44622 67.259 3.83431 65.5163C3.23197 63.8007 3.44772 62.084 4.17033 61.1885L1.05746 58.6765Z" fill="#D7D7D7" mask="url(#path-1-inside-1_683_2284)"/>
</g>
<defs>
<clipPath id="clip0_683_2284">
<rect width="14" height="70" fill="white"/>
</clipPath>
</defs>
</svg>
