<svg width="210" height="210" viewBox="0 0 210 210" fill="none" xmlns="http://www.w3.org/2000/svg">
<circle cx="105" cy="105" r="105" fill="#E8E8E8"/>
<path fill-rule="evenodd" clip-rule="evenodd" d="M105.488 117.862L106.07 117.862L107.36 117.866C118.315 117.924 143.977 118.92 143.977 135.848C143.977 151.543 122.901 153.64 106.507 153.719L103.617 153.718C92.662 153.659 67 152.664 67 135.74C67 119.714 88.9633 117.862 105.488 117.862ZM105.488 125.191C84.8149 125.191 74.3292 128.743 74.3292 135.74C74.3292 142.806 84.8149 146.392 105.488 146.392C126.162 146.392 136.647 142.84 136.647 135.848C136.647 128.773 126.162 125.191 105.488 125.191ZM105.488 57C119.819 57 131.473 68.6584 131.473 82.9846C131.473 97.3108 119.819 108.969 105.488 108.969H105.337C98.4034 108.945 91.9048 106.223 87.0333 101.317C82.1569 96.4069 79.4841 89.8887 79.5084 82.9699C79.5084 68.6584 91.1621 57 105.488 57ZM105.488 64.3292C95.2078 64.3292 86.8377 72.6992 86.8377 82.9846C86.8183 87.9636 88.7336 92.6299 92.2272 96.1528C95.7257 99.6708 100.387 101.62 105.351 101.64L105.488 105.261V101.64C115.774 101.64 124.144 93.27 124.144 82.9846C124.144 72.6992 115.774 64.3292 105.488 64.3292Z" fill="#787878"/>
</svg>
