<svg width="301" height="36" viewBox="0 0 301 36" fill="none" xmlns="http://www.w3.org/2000/svg">
<path d="M6.39948 1.71582V15.7106H7.32541L17.3519 1.71582H24.5212L12.6958 16.4248C17.4312 17.2979 19.4154 20.3931 20.9233 24.4936C22.1403 27.9328 23.0926 31.2132 24.6006 34.3085H18.1984C17.0344 32.0862 16.3201 29.3614 15.5 26.9011C14.2037 22.9328 12.4577 20.0756 7.74869 20.0756H6.39948V34.3085H0.5V1.71582H6.39948Z" fill="#303030"/>
<path d="M35.871 1.71582L41.3737 14.4407C42.2467 16.5571 42.961 18.5148 43.7017 20.446H43.834C44.3102 18.9381 44.8922 16.901 45.7123 14.3614L49.9187 1.74228H56.215L49.7864 18.1444C47.9081 22.8799 45.8711 27.827 43.4901 30.8693C41.3737 33.5413 38.8076 35.0228 35.4213 35.0228C33.9663 35.0228 33.0933 34.8905 32.379 34.5995L32.8023 29.8111C33.3314 29.9434 33.9663 29.9963 34.8922 29.9963C37.6435 29.9963 39.3367 27.6683 40.1568 25.8429C40.4478 25.2079 40.342 24.7847 40.0509 24.0968L29.125 1.74228H35.871V1.71582Z" fill="#303030"/>
<path d="M82.9322 1.71582V34.3349H76.9798V6.61001H68.0644V15.3137C68.0644 23.0915 67.3501 30.2079 62.5882 33.2238C61.1332 34.0439 59.0432 34.7847 56.7945 34.7847L56.0273 29.9963C57.5353 29.8111 58.8316 29.0704 59.5988 28.2503C61.8739 25.9751 62.2707 20.7899 62.2707 15.7635V1.74228H82.9322V1.71582Z" fill="#303030"/>
<path d="M96.9258 1.71582V13.4619C97.9311 13.2767 99.6772 13.1709 100.947 13.1709C107.772 13.1709 113.725 16.3719 113.725 23.5677C113.725 26.663 112.72 28.991 111.159 30.6312C108.196 33.6736 103.169 34.6524 98.328 34.6524C95.0475 34.6524 92.5608 34.4143 91.0264 34.2291V1.71582H96.9258ZM96.9258 29.9698C97.7989 30.1021 98.7512 30.155 99.9682 30.155C104.042 30.155 107.455 28.1709 107.455 23.8587C107.455 19.4936 104.016 17.8005 99.9946 17.8005C98.9364 17.8005 97.8782 17.9063 96.8994 17.9857V29.9698H96.9258Z" fill="#303030"/>
<path d="M122.379 6.68937H113.093V1.71582H137.722V6.68937H128.331V34.3085H122.379V6.68937Z" fill="#303030"/>
<path d="M146.741 1.71582L152.244 14.4407C153.117 16.5571 153.831 18.5148 154.572 20.446H154.704C155.18 18.9381 155.762 16.901 156.582 14.3614L160.789 1.74228H167.085L160.657 18.1444C158.778 22.8799 156.741 27.827 154.36 30.8693C152.244 33.5413 149.678 35.0228 146.291 35.0228C144.836 35.0228 143.963 34.8905 143.249 34.5995L143.672 29.8111C144.201 29.9434 144.836 29.9963 145.762 29.9963C148.514 29.9963 150.207 27.6683 151.027 25.8429C151.318 25.2079 151.212 24.7847 150.921 24.0968L139.995 1.74228H146.741V1.71582Z" fill="#303030"/>
<path d="M171.529 2.14096C173.699 1.74413 176.662 1.45312 180.63 1.45312C184.995 1.45312 188.117 2.37905 190.207 4.12509C192.138 5.71239 193.408 8.27854 193.408 11.3473C193.408 14.4426 192.429 16.9558 190.656 18.7018C188.249 21.0828 184.572 22.2468 180.339 22.2468C179.228 22.2468 178.249 22.1939 177.429 22.0087V34.3368H171.529V2.14096ZM177.429 17.2997C178.196 17.5378 179.122 17.5907 180.339 17.5907C184.783 17.5907 187.508 15.3685 187.508 11.5854C187.508 7.96107 184.995 6.08276 180.868 6.08276C179.228 6.08276 178.064 6.21504 177.429 6.37377V17.2997Z" fill="#303030"/>
<path d="M202.88 25.0757L200.076 34.3086H193.938L204.388 1.68945H211.981L222.589 34.3086H216.134L213.171 25.0757H202.88ZM212.219 20.5784L209.653 12.536C209.018 10.5519 208.489 8.32968 208.013 6.45137H207.907C207.431 8.32968 206.901 10.6048 206.346 12.536L203.833 20.5784H212.219Z" fill="#303030"/>
<path d="M227.354 31.0283C227.354 28.8061 228.914 27.2188 231.031 27.2188C233.2 27.2188 234.708 28.7796 234.708 31.0283C234.708 33.1976 233.253 34.8378 230.978 34.8378C228.861 34.8643 227.354 33.2241 227.354 31.0283Z" fill="#303030"/>
<path d="M240.952 2.14096C243.121 1.74413 246.084 1.45312 250.053 1.45312C254.418 1.45312 257.539 2.37905 259.629 4.12509C261.561 5.71239 262.831 8.27854 262.831 11.3473C262.831 14.4426 261.852 16.9558 260.079 18.7018C257.672 21.0828 253.994 22.2468 249.762 22.2468C248.651 22.2468 247.672 22.1939 246.852 22.0087V34.3368H240.952V2.14096ZM246.852 17.2997C247.619 17.5378 248.545 17.5907 249.762 17.5907C254.206 17.5907 256.931 15.3685 256.931 11.5854C256.931 7.96107 254.418 6.08276 250.291 6.08276C248.651 6.08276 247.487 6.21504 246.852 6.37377V17.2997Z" fill="#FF1E1F"/>
<path d="M286.664 0.368164V3.27822C293.595 3.67505 300.5 7.77559 300.5 17.9343C300.5 28.0931 293.674 32.1143 286.558 32.6434V35.6328H280.949V32.6434C273.992 32.1672 267.113 28.3312 267.113 18.1724C267.113 7.66977 274.759 3.7015 281.055 3.27822V0.368164H286.664ZM281.002 7.37876C277.51 7.72268 273.171 10.3682 273.171 18.0137C273.171 24.9714 277.246 28.0402 281.002 28.4635V7.37876ZM286.637 28.4635C290.314 28.1195 294.468 25.3682 294.468 17.9079C294.468 10.3682 290.447 7.69622 286.637 7.3523V28.4635Z" fill="#FF1E1F"/>
</svg>
