<svg width="43" height="34" viewBox="0 0 43 34" fill="none" xmlns="http://www.w3.org/2000/svg">
<path d="M42.0278 4.03302C40.4822 4.71455 38.8219 5.17504 37.0765 5.38318C38.8775 4.31078 40.2248 2.62293 40.8672 0.634592C39.1752 1.63476 37.3233 2.33877 35.3921 2.71601C34.0934 1.33613 32.3733 0.421524 30.4988 0.114188C28.6243 -0.193148 26.7002 0.123983 25.0253 1.01634C23.3505 1.90871 22.0185 3.32637 21.2363 5.04924C20.454 6.77211 20.2652 8.70379 20.6992 10.5444C17.2707 10.3731 13.9166 9.48626 10.8548 7.9415C7.79293 6.39675 5.09168 4.22857 2.92636 1.57768C2.18598 2.84864 1.76026 4.32221 1.76026 5.89157C1.75943 7.30435 2.10904 8.69549 2.77806 9.94156C3.44708 11.1876 4.41483 12.2501 5.59544 13.0347C4.22624 12.9914 2.88725 12.6232 1.68992 11.9608V12.0714C1.68978 14.0528 2.37854 15.9733 3.63932 17.507C4.90009 19.0407 6.65524 20.093 8.60694 20.4855C7.33678 20.8276 6.00512 20.8779 4.71253 20.6328C5.26319 22.3378 6.33581 23.8287 7.78024 24.8968C9.22468 25.965 10.9686 26.5569 12.7679 26.5898C9.7135 28.9759 5.94136 30.2702 2.05826 30.2645C1.37041 30.2647 0.683143 30.2247 0 30.1447C3.94156 32.6667 8.52983 34.0052 13.2158 34C29.0785 34 37.7502 20.9257 37.7502 9.58655C37.7502 9.21816 37.741 8.84608 37.7243 8.47769C39.4111 7.26378 40.8671 5.76059 42.0241 4.03855L42.0278 4.03302Z" fill="#303030"/>
</svg>
