<svg width="26" height="34" viewBox="0 0 26 34" fill="none" xmlns="http://www.w3.org/2000/svg">
<path d="M23.896 30.8121C24.2999 30.8122 24.6886 30.9656 24.9837 31.2413C25.2788 31.5171 25.4582 31.8945 25.4858 32.2974C25.5133 32.7003 25.3868 33.0987 25.132 33.4119C24.8771 33.7252 24.5129 33.9301 24.1128 33.9851L23.896 34H1.59346C1.18961 33.9999 0.800865 33.8465 0.50577 33.5708C0.210675 33.295 0.0312358 32.9176 0.0037094 32.5147C-0.023817 32.1118 0.102622 31.7134 0.357478 31.4002C0.612334 31.0869 0.976604 30.882 1.37669 30.827L1.59346 30.8121H23.896ZM12.7596 0.00212536C13.1444 0.00265473 13.516 0.142378 13.8059 0.395502C14.0957 0.648626 14.2842 0.99806 14.3366 1.3793L14.3514 1.59607V23.2589L20.655 16.9469C20.9246 16.6766 21.2822 16.5121 21.6629 16.4832C22.0436 16.4544 22.4219 16.5631 22.7292 16.7896L22.9099 16.9426C23.1804 17.2126 23.3449 17.5708 23.3733 17.952C23.4018 18.3331 23.2924 18.7118 23.065 19.019L22.912 19.1975L13.8945 28.2299L13.7457 28.3638L13.5502 28.4892L13.4737 28.5338L13.2803 28.6146L13.0253 28.6783L12.8765 28.6953L12.749 28.6996C12.6411 28.6994 12.5336 28.688 12.4281 28.6656L12.258 28.6167C12.056 28.5517 11.8695 28.4461 11.7097 28.3064L2.59234 19.1997C2.30641 18.9156 2.1387 18.5338 2.12298 18.131C2.10726 17.7283 2.24469 17.3346 2.50761 17.0291C2.77053 16.7236 3.13941 16.5291 3.53999 16.4846C3.94058 16.4402 4.34313 16.5492 4.6666 16.7896L4.84512 16.9447L11.1635 23.2504V1.59395C11.1635 1.17121 11.3315 0.76578 11.6304 0.466857C11.9293 0.167934 12.3347 0 12.7575 0L12.7596 0.00212536Z" fill="#303030"/>
</svg>
