<svg width="37" height="22" viewBox="0 0 37 22" fill="none" xmlns="http://www.w3.org/2000/svg">
<path fill-rule="evenodd" clip-rule="evenodd" d="M35.436 2.31909C35.6844 1.49693 35.436 0.891602 34.2466 0.891602H30.3192C29.3198 0.891602 28.859 1.41411 28.6091 1.99083C28.6091 1.99083 26.6118 6.80334 23.7826 9.92936C22.867 10.8358 22.451 11.1235 21.9513 11.1235C21.7015 11.1235 21.3259 10.8358 21.3259 10.0122V2.31909C21.3259 1.33129 21.0506 0.891602 20.2188 0.891602H14.0427C13.4188 0.891602 13.0433 1.34936 13.0433 1.78454C13.0433 2.71963 14.4587 2.93647 14.6038 5.56859V11.2876C14.6038 12.5419 14.3749 12.7693 13.8752 12.7693C12.5436 12.7693 9.30446 7.93419 7.38192 2.40191C7.00938 1.32527 6.63235 0.891602 5.62844 0.891602H1.69809C0.575983 0.891602 0.351562 1.41411 0.351562 1.99083C0.351562 3.01778 1.68313 8.1194 6.55306 14.8669C9.79968 19.4746 14.3704 21.9727 18.5341 21.9727C21.0312 21.9727 21.3394 21.4186 21.3394 20.4624V16.9795C21.3394 15.8697 21.5758 15.6484 22.3672 15.6484C22.9507 15.6484 23.9487 15.9375 26.2796 18.1585C28.9428 20.7921 29.3811 21.9727 30.8803 21.9727H34.8076C35.9297 21.9727 36.4923 21.4186 36.1691 20.3223C35.813 19.2321 34.5413 17.6496 32.8552 15.7718C31.9395 14.7027 30.5661 13.5508 30.1487 12.9741C29.5667 12.2347 29.7327 11.905 30.1487 11.2469C30.1487 11.2469 34.9363 4.5823 35.4345 2.31909H35.436Z" fill="currentColor"/>
</svg>
