<svg width="24" height="40" viewBox="0 0 24 40" fill="none" xmlns="http://www.w3.org/2000/svg">
<path d="M11.5393 0C5.86908 0 1.2564 4.63084 1.2564 10.3238C1.2564 16.0162 5.86908 20.645 11.5393 20.645C17.2093 20.645 21.8198 16.0162 21.8198 10.3238C21.8198 4.63084 17.2094 0 11.5393 0ZM11.5393 6.04876C13.8861 6.04876 15.7944 7.96744 15.7944 10.3238C15.7944 12.6791 13.8861 14.5963 11.5393 14.5963C9.19208 14.5963 7.28174 12.6791 7.28174 10.3238C7.28174 7.96744 9.19208 6.04876 11.5393 6.04876ZM3.06153 20.9962C2.04418 20.9804 1.04375 21.4839 0.463408 22.4125C-0.423482 23.8272 0.00137863 25.6939 1.40707 26.5837C3.26641 27.755 5.28404 28.586 7.37639 29.065L1.62991 34.8375C0.453528 36.0192 0.454524 37.9332 1.63115 39.115C2.22089 39.7048 2.99007 40 3.76119 40C4.53152 40 5.30328 39.7044 5.89123 39.1138L11.5369 33.4425L17.1875 39.1138C18.3629 40.2952 20.2689 40.2952 21.4463 39.1138C22.6232 37.9328 22.6232 36.0168 21.4463 34.8375L15.6973 29.0663C17.7903 28.5873 19.8086 27.7558 21.6667 26.5838C23.0751 25.694 23.5006 23.8252 22.614 22.4125C21.7264 20.9975 19.868 20.5713 18.4585 21.4625C14.2489 24.1213 8.82474 24.1195 4.61641 21.4625C4.13199 21.1562 3.59443 21.0046 3.06153 20.9963V20.9962Z" fill="#303030"/>
</svg>
