<svg width="14" height="12" viewBox="0 0 14 12" fill="none" xmlns="http://www.w3.org/2000/svg">
<path fill-rule="evenodd" clip-rule="evenodd" d="M14 6C14 6.22729 13.9078 6.44527 13.7437 6.60598C13.5797 6.7667 13.3571 6.85699 13.1251 6.85699L2.98848 6.85699L6.74531 10.5352C6.82666 10.6149 6.89118 10.7095 6.93521 10.8136C6.97923 10.9177 7.00189 11.0292 7.00189 11.1419C7.00189 11.2546 6.97923 11.3662 6.93521 11.4703C6.89118 11.5744 6.82666 11.669 6.74531 11.7487C6.66397 11.8284 6.5674 11.8916 6.46111 11.9347C6.35483 11.9778 6.24092 12 6.12588 12C6.01084 12 5.89693 11.9778 5.79065 11.9347C5.68436 11.8916 5.58779 11.8284 5.50645 11.7487L0.257035 6.60675C0.175559 6.52714 0.110916 6.43257 0.0668107 6.32846C0.0227042 6.22434 7.28935e-08 6.11272 7.15493e-08 6C7.02051e-08 5.88728 0.0227042 5.77566 0.0668107 5.67154C0.110916 5.56743 0.175559 5.47286 0.257035 5.39325L5.50645 0.251323C5.58779 0.171644 5.68436 0.108439 5.79065 0.0653169C5.89693 0.0221948 6.01084 9.52698e-08 6.12588 9.38979e-08C6.24092 9.25261e-08 6.35483 0.0221948 6.46111 0.0653169C6.5674 0.108439 6.66397 0.171644 6.74531 0.251323C6.90959 0.412243 7.00189 0.630497 7.00189 0.858071C7.00189 0.970755 6.97923 1.08234 6.93521 1.18644C6.89118 1.29055 6.82666 1.38514 6.74531 1.46482L2.98848 5.14301L13.1251 5.14301C13.3571 5.14301 13.5797 5.2333 13.7437 5.39402C13.9078 5.55473 14 5.77271 14 6Z" fill="currentColor"/>
</svg>
