<svg width="26" height="26" viewBox="0 0 26 26" fill="none" xmlns="http://www.w3.org/2000/svg">
<path d="M12.9971 8.67366C10.6149 8.67366 8.67091 10.6177 8.67091 12.9998C8.67091 15.382 10.6149 17.326 12.9971 17.326C15.3792 17.326 17.3232 15.382 17.3232 12.9998C17.3232 10.6177 15.3792 8.67366 12.9971 8.67366ZM25.9723 12.9998C25.9723 11.2083 25.9886 9.43309 25.8879 7.64486C25.7873 5.56778 25.3135 3.72437 23.7946 2.20551C22.2725 0.683399 20.4324 0.212811 18.3553 0.112202C16.5638 0.0115936 14.7886 0.0278208 13.0003 0.0278208C11.2088 0.0278208 9.43358 0.0115936 7.64535 0.112202C5.56827 0.212811 3.72486 0.686644 2.206 2.20551C0.683887 3.72762 0.213299 5.56778 0.11269 7.64486C0.0120819 9.43634 0.0283091 11.2116 0.0283091 12.9998C0.0283091 14.7881 0.0120819 16.5666 0.11269 18.3548C0.213299 20.4319 0.687133 22.2753 2.206 23.7941C3.72811 25.3163 5.56827 25.7868 7.64535 25.8875C9.43683 25.9881 11.2121 25.9718 13.0003 25.9718C14.7918 25.9718 16.5671 25.9881 18.3553 25.8875C20.4324 25.7868 22.2758 25.313 23.7946 23.7941C25.3167 22.272 25.7873 20.4319 25.8879 18.3548C25.9918 16.5666 25.9723 14.7913 25.9723 12.9998ZM12.9971 19.6562C9.3135 19.6562 6.34068 16.6834 6.34068 12.9998C6.34068 9.31626 9.3135 6.34344 12.9971 6.34344C16.6806 6.34344 19.6535 9.31626 19.6535 12.9998C19.6535 16.6834 16.6806 19.6562 12.9971 19.6562ZM19.9261 7.62539C19.066 7.62539 18.3715 6.93086 18.3715 6.07082C18.3715 5.21078 19.066 4.51626 19.9261 4.51626C20.7861 4.51626 21.4806 5.21078 21.4806 6.07082C21.4809 6.27504 21.4409 6.47731 21.3628 6.66603C21.2848 6.85476 21.1703 7.02623 21.0259 7.17064C20.8815 7.31504 20.71 7.42954 20.5213 7.50757C20.3326 7.58561 20.1303 7.62564 19.9261 7.62539Z" fill="currentColor"/>
</svg>
