<svg width="24" height="24" viewBox="0 0 24 24" fill="none" xmlns="http://www.w3.org/2000/svg">
<path d="M17.1079 15.276C18.4898 13.4378 19.1367 11.1483 18.9188 8.8557C18.6966 6.51896 17.5926 4.35461 15.8313 2.80296C14.0701 1.2513 11.7838 0.4289 9.43773 0.503049C7.09162 0.577197 4.86188 1.54233 3.20211 3.20211C1.54233 4.86188 0.577197 7.09163 0.503049 9.43773C0.4289 11.7838 1.2513 14.0701 2.80296 15.8313C4.35461 17.5926 6.51896 18.6966 8.8557 18.9188C11.1485 19.1368 13.4383 18.4896 15.2766 17.1074L21.2907 23.1215C21.2907 23.1215 21.2908 23.1216 21.2908 23.1216C21.5335 23.3645 21.8629 23.501 22.2063 23.5011C22.5497 23.5013 22.8792 23.3649 23.1221 23.1222C23.365 22.8794 23.5016 22.5501 23.5017 22.2066C23.5018 21.8632 23.3655 21.5337 23.1227 21.2908L23.1227 21.2908L17.1079 15.276ZM14.44 14.4388C13.1909 15.688 11.4967 16.3897 9.73017 16.3897C7.96365 16.3897 6.26948 15.688 5.02037 14.4388C3.77125 13.1897 3.0695 11.4956 3.0695 9.72903C3.0695 7.96252 3.77125 6.26835 5.02037 5.01923C6.26948 3.77012 7.96365 3.06837 9.73017 3.06837C11.4967 3.06837 13.1909 3.77012 14.44 5.01923C15.6891 6.26835 16.3908 7.96252 16.3908 9.72903C16.3908 11.4956 15.6891 13.1897 14.44 14.4388Z" fill="#303030" stroke="#303030" stroke-width="0.3"/>
</svg>
