<svg width="21" height="25" viewBox="0 0 21 25" fill="none" xmlns="http://www.w3.org/2000/svg">
<path fill-rule="evenodd" clip-rule="evenodd" d="M10.3904 0C9.99683 2.10734e-08 9.61934 0.159626 9.34103 0.443763C9.06271 0.727899 8.90635 1.11327 8.90635 1.5151V19.0691L2.53668 12.5632C2.3987 12.4224 2.23489 12.3106 2.0546 12.2344C1.87432 12.1581 1.68109 12.1189 1.48595 12.1189C1.29082 12.1189 1.09759 12.1581 0.917304 12.2344C0.737019 12.3106 0.57321 12.4224 0.435227 12.5632C0.297243 12.7041 0.187788 12.8713 0.113112 13.0554C0.0384358 13.2394 1.05367e-08 13.4367 0 13.6359C-1.05367e-08 13.8351 0.0384345 14.0324 0.113111 14.2165C0.187787 14.4005 0.297241 14.5677 0.435225 14.7086L9.3397 23.7992C9.47756 23.9403 9.64133 24.0523 9.82163 24.1286C10.0019 24.205 10.1952 24.2443 10.3904 24.2443C10.5856 24.2443 10.7789 24.205 10.9592 24.1286C11.1395 24.0523 11.3033 23.9403 11.4412 23.7992L20.3456 14.7086C20.4836 14.5677 20.5931 14.4005 20.6677 14.2165C20.7424 14.0324 20.7809 13.8351 20.7809 13.6359C20.7809 13.4367 20.7424 13.2394 20.6677 13.0554C20.5931 12.8713 20.4836 12.7041 20.3456 12.5632C20.067 12.2787 19.689 12.1189 19.2949 12.1189C19.0998 12.1189 18.9065 12.1581 18.7263 12.2344C18.546 12.3106 18.3822 12.4224 18.2442 12.5632L11.8745 19.0691L11.8745 1.5151C11.8745 1.11327 11.7182 0.7279 11.4398 0.443763C11.1615 0.159627 10.784 -2.10734e-08 10.3904 0Z" fill="currentColor"/>
</svg>
