<svg width="18" height="18" viewBox="0 0 18 18" fill="none" xmlns="http://www.w3.org/2000/svg">
<path fill-rule="evenodd" clip-rule="evenodd" d="M0.428332 17.5717C0.706651 17.85 1.08644 18.004 1.48416 17.9999C1.88188 17.9958 2.26494 17.8339 2.54907 17.5497L14.9616 5.1372L14.8653 14.2416C14.8633 14.4387 14.9001 14.6336 14.9737 14.815C15.0472 14.9964 15.1561 15.1607 15.2941 15.2987C15.4321 15.4367 15.5965 15.5456 15.7779 15.6192C15.9592 15.6927 16.1541 15.7296 16.3513 15.7275C16.5484 15.7255 16.7441 15.6846 16.927 15.6073C17.11 15.5299 17.2767 15.4176 17.4175 15.2768C17.5584 15.1359 17.6707 14.9692 17.748 14.7863C17.8254 14.6033 17.8662 14.4077 17.8683 14.2105L17.9999 1.48606C18.0022 1.28881 17.9655 1.09385 17.8921 0.912344C17.8186 0.730843 17.7097 0.566366 17.5717 0.428333C17.4336 0.2903 17.2692 0.181425 17.0877 0.107942C16.9062 0.0344589 16.7112 -0.00218856 16.5139 0.000101028L3.7895 0.131718C3.59232 0.133758 3.39667 0.174614 3.21372 0.251955C3.03077 0.329296 2.8641 0.441607 2.72324 0.582475C2.58237 0.723343 2.47006 0.89001 2.39272 1.07296C2.31538 1.25591 2.27452 1.45156 2.27248 1.64873C2.26836 2.04695 2.4226 2.42723 2.70127 2.7059C2.83926 2.84388 3.00364 2.95277 3.18502 3.02634C3.36641 3.09991 3.56126 3.13673 3.75843 3.13469L12.8628 3.03839L0.450268 15.4509C0.166131 15.7351 0.00419417 16.1181 8.0327e-05 16.5158C-0.00403351 16.9136 0.150013 17.2933 0.428332 17.5717Z" fill="currentColor"/>
</svg>
