<svg width="31" height="19" viewBox="0 0 31 19" fill="none" xmlns="http://www.w3.org/2000/svg">
<path d="M13 18.148L11.362 13.234H4.576L2.99 18.148H0L6.188 0H9.88L16.068 18.148H13ZM8.034 2.704H7.904L5.278 10.712H10.634L8.034 2.704Z" fill="#303030"/>
<path d="M28.6022 18.148C27.8569 18.148 27.2849 17.94 26.8862 17.524C26.4876 17.0907 26.2449 16.5447 26.1582 15.886H26.0282C25.7682 16.7353 25.2916 17.3767 24.5982 17.81C23.9049 18.2433 23.0642 18.46 22.0762 18.46C20.6722 18.46 19.5889 18.096 18.8262 17.368C18.0809 16.64 17.7082 15.6607 17.7082 14.43C17.7082 13.078 18.1936 12.064 19.1642 11.388C20.1522 10.712 21.5909 10.374 23.4802 10.374H25.9242V9.23C25.9242 8.398 25.6989 7.75667 25.2482 7.306C24.7976 6.85533 24.0956 6.63 23.1422 6.63C22.3449 6.63 21.6949 6.80333 21.1922 7.15C20.6896 7.49667 20.2649 7.93867 19.9182 8.476L18.2282 6.942C18.6789 6.17933 19.3116 5.55533 20.1262 5.07C20.9409 4.56733 22.0069 4.316 23.3242 4.316C25.0749 4.316 26.4182 4.72333 27.3542 5.538C28.2902 6.35267 28.7582 7.52267 28.7582 9.048V15.834H30.1882V18.148H28.6022ZM22.8822 16.302C23.7662 16.302 24.4942 16.1113 25.0662 15.73C25.6382 15.3313 25.9242 14.8027 25.9242 14.144V12.194H23.5322C21.5736 12.194 20.5942 12.8007 20.5942 14.014V14.482C20.5942 15.0887 20.7936 15.548 21.1922 15.86C21.6082 16.1547 22.1716 16.302 22.8822 16.302Z" fill="#303030"/>
</svg>
