<?xml version="1.0" standalone="no"?>
<!DOCTYPE svg PUBLIC "-//W3C//DTD SVG 20010904//EN"
 "http://www.w3.org/TR/2001/REC-SVG-20010904/DTD/svg10.dtd">
<svg version="1.0" xmlns="http://www.w3.org/2000/svg"
 width="824.000000pt" height="824.000000pt" viewBox="0 0 824.000000 824.000000"
 preserveAspectRatio="xMidYMid meet">
<metadata>
Created by potrace 1.14, written by Peter Selinger 2001-2017
</metadata>
<g transform="translate(0.000000,824.000000) scale(0.100000,-0.100000)"
fill="#000000" stroke="none">
<path d="M624 7704 c3 -9 29 -79 56 -157 28 -78 55 -151 59 -162 5 -11 16 -40
24 -65 27 -82 69 -194 83 -227 8 -17 14 -36 14 -42 0 -6 6 -25 14 -43 8 -18
27 -67 41 -108 15 -41 29 -82 32 -90 4 -8 7 -17 7 -20 2 -11 39 -107 52 -136
7 -17 15 -40 17 -50 2 -11 9 -32 15 -47 7 -16 12 -34 12 -42 0 -8 4 -16 9 -19
5 -3 11 -16 14 -28 2 -13 19 -61 36 -108 46 -121 70 -188 87 -240 8 -25 19
-54 24 -65 5 -11 27 -72 50 -135 22 -63 43 -122 47 -130 3 -8 7 -19 9 -25 1
-5 12 -35 24 -65 12 -30 23 -62 25 -70 3 -14 26 -78 45 -125 4 -11 22 -60 40
-110 17 -49 36 -102 42 -117 5 -15 10 -31 10 -35 0 -4 3 -12 8 -18 4 -5 18
-41 30 -80 12 -38 26 -74 29 -80 4 -5 13 -28 20 -50 11 -34 24 -71 67 -190 4
-11 8 -24 9 -30 2 -5 26 -73 55 -150 28 -77 63 -171 77 -210 13 -38 31 -86 38
-105 7 -19 25 -69 40 -110 15 -41 35 -97 45 -125 31 -82 239 -657 251 -695 7
-19 15 -44 20 -55 36 -96 49 -89 -151 -91 -96 -2 -326 -5 -510 -9 -400 -7
-811 -13 -970 -14 l-115 -2 -42 -57 c-23 -31 -49 -66 -58 -77 -25 -32 -258
-339 -280 -370 -11 -15 -33 -43 -49 -61 l-28 -34 23 -1 c13 0 74 1 134 1 61 1
205 3 321 4 116 2 215 6 222 9 6 4 13 4 16 -1 5 -8 99 -6 124 3 6 2 12 0 12
-6 0 -6 5 -7 11 -4 5 4 130 9 277 11 307 4 925 13 1151 17 131 2 154 0 158
-13 3 -8 9 -25 14 -37 5 -13 13 -33 18 -45 5 -13 24 -66 42 -118 18 -52 37
-106 42 -120 6 -14 11 -27 12 -30 6 -25 18 -59 26 -75 5 -11 20 -51 33 -90 35
-102 115 -327 123 -345 3 -8 7 -19 9 -25 6 -20 46 -130 54 -150 5 -11 16 -40
24 -65 8 -25 29 -83 46 -130 17 -47 33 -92 35 -102 2 -9 11 -30 19 -47 9 -17
15 -31 12 -31 -2 0 9 -35 26 -77 16 -43 31 -82 32 -88 2 -5 6 -17 9 -25 3 -8
20 -55 37 -105 30 -85 104 -290 137 -382 l16 -43 958 0 c528 0 959 1 959 3 0
3 -39 109 -49 132 -5 11 -14 34 -20 50 -6 17 -16 44 -22 60 -7 17 -13 32 -14
35 -1 3 -5 14 -9 25 -5 11 -25 65 -46 120 -20 55 -41 109 -45 120 -5 11 -9 22
-10 25 -1 3 -5 13 -8 23 -4 9 -10 25 -14 35 -3 9 -7 19 -8 22 -1 3 -5 12 -8
20 -7 15 -117 305 -163 430 -14 36 -29 74 -34 85 -4 11 -25 65 -45 120 -21 55
-43 114 -50 130 -7 17 -43 111 -80 210 -37 99 -73 194 -80 210 -7 17 -20 53
-30 80 -10 28 -23 64 -30 80 -7 17 -23 57 -35 90 -12 33 -26 69 -30 80 -5 11
-27 70 -50 130 -23 61 -54 144 -70 185 -16 41 -52 136 -80 210 -28 74 -64 169
-80 210 -42 111 -43 115 -45 120 -1 3 -7 19 -14 35 -6 17 -20 53 -31 80 -10
28 -37 97 -59 154 -23 58 -41 108 -41 112 0 3 -8 24 -17 45 -9 22 -18 45 -19
53 -1 7 -7 18 -13 24 -6 6 -11 19 -11 29 0 10 -4 26 -10 36 -5 9 -21 46 -34
82 -50 137 -99 267 -117 307 -11 24 -19 45 -19 48 0 5 -132 357 -151 403 -5
12 -13 32 -18 45 -4 12 -13 33 -18 47 -6 14 -20 52 -33 85 -12 33 -25 69 -30
80 -14 34 -35 90 -36 95 0 3 -6 19 -13 35 -7 17 -40 102 -73 190 -33 88 -69
183 -80 210 -43 109 -44 100 22 189 33 45 63 86 67 91 18 22 49 64 63 85 8 12
22 30 30 40 8 10 22 28 30 40 35 50 91 126 103 140 8 8 23 29 33 45 10 17 23
35 29 41 22 25 42 51 75 99 19 27 41 56 47 65 12 15 106 141 141 189 9 13 23
30 30 37 6 7 12 17 12 23 0 6 5 11 10 11 6 0 10 6 10 14 0 8 4 16 8 18 9 3 90
110 108 142 11 19 12 19 21 0 6 -10 20 -48 32 -84 12 -36 26 -74 30 -85 5 -11
18 -45 29 -75 11 -30 35 -93 52 -140 17 -47 33 -92 35 -100 7 -25 35 -104 45
-125 5 -11 14 -38 21 -60 7 -22 19 -56 27 -75 9 -19 17 -41 18 -49 1 -7 12
-36 23 -65 11 -28 79 -215 151 -416 72 -201 137 -381 145 -400 7 -19 30 -82
50 -140 20 -58 43 -122 51 -142 41 -109 76 -203 75 -205 0 -2 6 -18 14 -37 8
-20 15 -39 15 -43 0 -4 14 -44 31 -87 17 -44 32 -87 34 -95 2 -9 9 -29 16 -46
6 -16 13 -34 14 -40 2 -5 16 -46 33 -90 17 -44 54 -145 82 -225 58 -162 113
-313 160 -440 17 -47 32 -89 34 -95 2 -5 8 -23 14 -38 7 -15 15 -40 18 -55 4
-15 10 -31 14 -37 4 -5 10 -19 12 -30 3 -11 22 -65 43 -120 20 -55 45 -127 56
-160 12 -33 27 -74 35 -92 8 -17 14 -36 14 -42 0 -6 6 -25 14 -43 14 -33 27
-66 31 -80 2 -5 3 -9 5 -10 1 -2 3 -10 5 -18 10 -40 41 -116 50 -122 6 -4 7
-8 2 -8 -4 0 0 -17 8 -37 9 -21 30 -78 46 -128 17 -49 35 -99 40 -110 14 -32
81 -218 86 -243 3 -12 9 -25 14 -28 5 -3 9 -15 9 -28 0 -12 4 -26 10 -32 5 -5
11 -18 13 -29 2 -11 9 -33 16 -50 7 -16 22 -57 33 -90 12 -33 25 -71 31 -85 6
-14 11 -28 12 -32 2 -5 4 -10 5 -13 1 -3 4 -9 5 -15 1 -5 4 -12 5 -15 1 -3 3
-8 5 -12 1 -5 5 -15 8 -23 3 -8 27 -73 52 -145 25 -71 61 -170 80 -220 52
-142 172 -477 180 -505 4 -14 11 -30 16 -36 5 -6 10 -19 12 -30 2 -10 7 -28
11 -39 5 -11 16 -44 27 -72 10 -29 28 -77 38 -105 11 -29 28 -75 38 -103 10
-27 17 -53 15 -57 -1 -5 430 -8 958 -8 l959 0 -15 43 c-8 23 -18 51 -23 62
-14 32 -54 135 -146 380 -47 127 -90 239 -95 250 -4 11 -23 58 -40 105 -18 47
-38 99 -46 117 -8 17 -14 34 -14 38 0 4 -6 21 -14 38 -15 34 -69 177 -72 190
-1 4 -3 9 -4 12 -1 3 -3 8 -4 13 -2 4 -7 18 -13 32 -6 14 -19 45 -28 70 -10
25 -21 54 -25 65 -5 11 -27 70 -50 130 -23 61 -58 155 -80 210 -21 55 -57 150
-80 210 -23 61 -48 124 -56 142 -8 17 -14 36 -14 42 0 6 -7 25 -15 43 -8 18
-33 83 -55 143 -23 61 -46 120 -51 133 -33 81 -73 185 -75 197 -2 11 -90 239
-104 270 -5 11 -37 94 -70 185 -34 91 -66 176 -72 190 -34 79 -110 284 -111
298 0 6 -4 12 -9 12 -4 0 -8 6 -8 13 0 10 -32 100 -65 182 -5 11 -9 23 -10 28
-2 4 -4 9 -5 12 -1 3 -3 8 -5 13 -1 4 -7 21 -14 37 -7 17 -23 59 -37 95 -14
36 -31 81 -39 100 -49 128 -60 156 -60 160 0 5 -60 160 -102 265 -13 33 -25
65 -27 70 -4 12 -15 43 -26 70 -4 11 -13 36 -20 55 -7 19 -21 54 -31 77 -11
24 -19 46 -19 49 0 4 -18 53 -39 108 -22 56 -58 151 -81 211 -23 61 -45 119
-50 130 -5 11 -27 70 -50 130 -22 61 -45 118 -50 127 -6 10 -10 26 -10 36 0
10 -4 22 -9 28 -5 5 -20 41 -34 79 -31 85 -95 253 -107 280 -5 11 -32 83 -60
160 -29 77 -60 159 -71 182 -10 24 -19 47 -19 53 0 5 -7 26 -16 47 -36 83 -43
103 -94 238 -96 258 -122 327 -137 365 -50 121 -63 157 -63 168 0 9 -184 12
-887 12 l-888 0 -125 -170 c-69 -94 -132 -180 -141 -190 -9 -11 -27 -36 -40
-55 -13 -19 -27 -35 -31 -35 -5 0 -8 -4 -8 -9 0 -7 -160 -228 -206 -284 -7 -9
-14 -19 -14 -21 0 -2 -9 -15 -20 -28 -11 -12 -83 -108 -160 -212 -138 -186
-140 -188 -150 -160 -16 43 -19 54 -19 57 0 1 -18 47 -41 101 -22 55 -40 103
-40 108 0 4 -9 28 -21 52 -11 25 -22 51 -23 58 -3 12 -15 45 -33 88 -3 8 -7
20 -8 25 -2 6 -23 62 -48 125 -25 63 -69 176 -97 250 -28 74 -53 142 -57 150
-3 8 -7 17 -8 20 -1 3 -6 16 -12 30 -6 14 -16 42 -24 63 l-13 37 -884 0 c-803
0 -884 -1 -878 -16z"/>
</g>
</svg>
